<svg width="1081" height="798" viewBox="0 0 1081 798" fill="none" xmlns="http://www.w3.org/2000/svg">
<mask id="mask0_15_21" style="mask-type:alpha" maskUnits="userSpaceOnUse" x="0" y="0" width="1081" height="798">
<path d="M1081 0H0V798H1081V0Z" fill="#D7CDFF"/>
</mask>
<g mask="url(#mask0_15_21)">
<path style="mix-blend-mode:multiply" opacity="0.5" d="M546.078 798.117C755.378 798.117 925.049 779.092 925.049 755.624C925.049 732.156 755.378 713.131 546.078 713.131C336.778 713.131 167.107 732.156 167.107 755.624C167.107 779.092 336.778 798.117 546.078 798.117Z" fill="url(#paint0_radial_15_21)"/>
<path style="mix-blend-mode:multiply" opacity="0.5" d="M138.922 773.486C281.542 773.486 397.159 765.554 397.159 755.769C397.159 745.984 281.542 738.052 138.922 738.052C-3.69836 738.052 -119.315 745.984 -119.315 755.769C-119.315 765.554 -3.69836 773.486 138.922 773.486Z" fill="url(#paint1_radial_15_21)"/>
<path style="mix-blend-mode:multiply" opacity="0.5" d="M941.685 776.435C1084.31 776.435 1199.92 768.503 1199.92 758.718C1199.92 748.933 1084.31 741.001 941.685 741.001C799.065 741.001 683.448 748.933 683.448 758.718C683.448 768.503 799.065 776.435 941.685 776.435Z" fill="url(#paint2_radial_15_21)"/>
<path d="M291.302 689.231C312.512 660.27 319.481 629.305 306.869 620.068C294.257 610.832 266.839 626.822 245.629 655.783C224.42 684.744 217.45 715.71 230.063 724.946C242.675 734.183 270.093 718.192 291.302 689.231Z" fill="url(#paint3_linear_15_21)"/>
<path opacity="0.25" d="M311.837 624.531C311.216 623.846 310.546 623.17 309.814 622.505L306.061 623.085L307.752 620.775C307.452 620.541 307.147 620.308 306.832 620.075C306.517 619.842 306.203 619.623 305.888 619.409L302.833 623.581L302.653 623.609L302.681 623.789L294.028 635.606L290.886 615.231C290.12 615.31 289.358 615.429 288.604 615.587L292.098 638.242L282.714 651.057L282.534 651.085L282.562 651.265L273.909 663.082L268.509 628.069C267.835 628.724 267.16 629.399 266.484 630.092L271.978 665.718L262.6 678.535L262.42 678.563L262.448 678.743L253.79 690.56L247.941 652.626C247.298 653.493 246.654 654.366 246.008 655.246L251.86 693.196L242.476 706.011L242.296 706.039L242.324 706.219L233.671 718.035L228.745 686.092C228.151 687.643 227.608 689.173 227.116 690.681L231.741 720.672L229.156 724.203C229.444 724.458 229.741 724.703 230.056 724.932C230.371 725.161 230.692 725.37 231.022 725.568L243.777 708.149L280.305 702.509C281.133 701.622 281.956 700.716 282.775 699.79L245.7 705.512L263.889 680.673L301.619 674.848C302.229 673.97 302.829 673.098 303.419 672.232L265.819 678.032L284.012 653.2L316.161 648.236C316.413 647.415 316.638 646.601 316.828 645.795L285.942 650.563L304.131 625.724L311.837 624.531Z" fill="white"/>
<path d="M1090.55 574.764C1085.32 585.417 1079.72 595.88 1073.76 606.152C1067.81 616.424 1061.49 626.47 1054.83 636.29C1048.17 646.112 1041.18 655.696 1033.85 665.041C1026.53 674.386 1018.89 683.463 1010.94 692.271C1002.99 701.079 994.74 709.603 986.19 717.842C985.14 718.853 984.086 719.86 983.029 720.862C982.827 721.109 982.73 721.426 982.759 721.744C982.788 722.062 982.942 722.356 983.186 722.562C983.435 722.76 983.751 722.854 984.067 722.825C984.384 722.795 984.677 722.645 984.886 722.405C993.537 714.205 1001.9 705.714 1009.96 696.931C1018.02 688.148 1025.77 679.094 1033.19 669.769C1040.59 660.489 1047.66 650.961 1054.39 641.184C1061.16 631.373 1067.58 621.336 1073.66 611.072C1079.74 600.808 1085.45 590.349 1090.79 579.695C1091.44 578.392 1092.09 577.087 1092.73 575.778C1093.42 574.384 1091.23 573.369 1090.54 574.765L1090.55 574.764Z" fill="white"/>
<path d="M1023.55 669.809C1025 676.943 1020.36 683.909 1020.36 683.909C1020.36 683.909 1013.37 679.309 1011.92 672.173C1010.47 665.037 1011.9 658.725 1015.12 658.073C1018.33 657.421 1022.11 662.674 1023.55 669.809Z" fill="white"/>
<path d="M1032.78 676.986C1025.5 677.064 1019.67 683.064 1019.67 683.064C1019.67 683.064 1025.63 688.938 1032.91 688.864C1040.18 688.79 1046.05 686.064 1046.02 682.785C1045.98 679.506 1040.06 676.908 1032.78 676.986Z" fill="white"/>
<path d="M1049.83 656.657C1042.55 656.735 1036.71 662.735 1036.71 662.735C1036.71 662.735 1042.68 668.609 1049.95 668.535C1057.23 668.461 1063.1 665.735 1063.06 662.457C1063.03 659.179 1057.1 656.579 1049.83 656.657Z" fill="white"/>
<path d="M1066.4 633.267C1059.12 633.345 1053.29 639.346 1053.29 639.346C1053.29 639.346 1059.25 645.219 1066.53 645.141C1073.8 645.063 1079.67 642.341 1079.64 639.063C1079.6 635.785 1073.68 633.189 1066.4 633.267Z" fill="white"/>
<path d="M1081.46 607.333C1074.26 608.414 1069.32 615.163 1069.32 615.163C1069.32 615.163 1076.03 620.157 1083.23 619.075C1090.42 617.993 1095.86 614.488 1095.37 611.245C1094.89 608.002 1088.66 606.251 1081.46 607.333Z" fill="white"/>
<path d="M1040.44 648.374C1041.89 655.508 1037.25 662.474 1037.25 662.474C1037.25 662.474 1030.26 657.874 1028.81 650.738C1027.36 643.602 1028.79 637.29 1032 636.638C1035.21 635.986 1038.99 641.239 1040.44 648.374Z" fill="white"/>
<path d="M1054.77 625.631C1057.32 632.45 1053.82 640.057 1053.82 640.057C1053.82 640.057 1046.2 636.61 1043.65 629.791C1041.1 622.972 1041.52 616.513 1044.59 615.364C1047.66 614.215 1052.22 618.812 1054.77 625.631Z" fill="white"/>
<path d="M1069.5 601.154C1072.35 607.854 1069.2 615.608 1069.2 615.608C1069.2 615.608 1061.43 612.5 1058.58 605.801C1055.74 599.102 1055.87 592.63 1058.88 591.347C1061.9 590.064 1066.65 594.454 1069.5 601.154Z" fill="white"/>
<path d="M1082.4 579.029C1085.25 585.729 1082.1 593.483 1082.1 593.483C1082.1 593.483 1074.33 590.376 1071.48 583.677C1068.63 576.978 1068.77 570.506 1071.78 569.222C1074.79 567.938 1079.55 572.33 1082.4 579.029Z" fill="white"/>
<path d="M272.739 565.016C267.417 574.005 261.788 582.802 255.852 591.406C249.916 600.01 243.687 608.392 237.164 616.551C230.645 624.712 223.849 632.64 216.776 640.337C209.703 648.034 202.375 655.473 194.792 662.656C187.209 669.838 179.382 676.75 171.313 683.392C170.322 684.207 169.328 685.017 168.331 685.824C168.137 686.027 168.031 686.298 168.035 686.578C168.039 686.859 168.153 687.127 168.352 687.324C168.557 687.514 168.827 687.617 169.106 687.613C169.386 687.609 169.653 687.498 169.852 687.302C178.007 680.702 185.926 673.826 193.609 666.674C201.292 659.522 208.713 652.111 215.87 644.44C222.998 636.805 229.857 628.93 236.446 620.815C243.059 612.671 249.386 604.304 255.425 595.715C261.464 587.126 267.195 578.34 272.617 569.359C273.28 568.26 273.938 567.16 274.591 566.059C275.291 564.882 273.437 563.841 272.739 565.019V565.016Z" fill="white"/>
<path d="M207.408 643.812C208.189 650.173 203.637 655.966 203.637 655.966C203.637 655.966 197.82 651.447 197.037 645.086C196.254 638.725 197.945 633.286 200.809 632.931C203.673 632.576 206.628 637.451 207.408 643.812Z" fill="white"/>
<path d="M215.011 650.746C208.621 650.314 203.087 655.177 203.087 655.177C203.087 655.177 207.915 660.742 214.306 661.177C220.697 661.612 226.035 659.626 226.229 656.746C226.423 653.866 221.4 651.179 215.011 650.746Z" fill="white"/>
<path d="M231.368 634.08C224.978 633.647 219.445 638.511 219.445 638.511C219.445 638.511 224.273 644.076 230.663 644.511C237.053 644.946 242.392 642.959 242.587 640.08C242.782 637.201 237.759 634.512 231.368 634.08Z" fill="white"/>
<path d="M247.525 614.7C241.135 614.267 235.602 619.131 235.602 619.131C235.602 619.131 240.43 624.696 246.82 625.131C253.21 625.566 258.549 623.579 258.744 620.7C258.939 617.821 253.916 615.128 247.525 614.7Z" fill="white"/>
<path d="M262.526 592.972C256.137 593.426 251.326 599.007 251.326 599.007C251.326 599.007 256.875 603.852 263.264 603.399C269.653 602.946 274.664 600.243 274.464 597.364C274.264 594.485 268.915 592.518 262.526 592.972Z" fill="white"/>
<path d="M274.957 573.862C268.568 574.316 263.757 579.897 263.757 579.897C263.757 579.897 269.306 584.743 275.695 584.289C282.084 583.835 287.095 581.133 286.895 578.254C286.695 575.375 281.346 573.408 274.957 573.862Z" fill="white"/>
<path d="M223.7 626.164C224.48 632.525 219.928 638.318 219.928 638.318C219.928 638.318 214.111 633.798 213.328 627.437C212.545 621.076 214.236 615.637 217.099 615.283C219.962 614.929 222.919 619.8 223.7 626.164Z" fill="white"/>
<path d="M237.84 607.192C239.608 613.351 236.02 619.792 236.02 619.792C236.02 619.792 229.567 616.241 227.799 610.081C226.031 603.921 226.845 598.281 229.618 597.481C232.391 596.681 236.072 601.032 237.84 607.192Z" fill="white"/>
<path d="M252.455 586.726C254.494 592.801 251.194 599.39 251.194 599.39C251.194 599.39 244.594 596.127 242.552 590.052C240.51 583.977 241.078 578.307 243.813 577.388C246.548 576.469 250.417 580.65 252.455 586.726Z" fill="white"/>
<path d="M265.3 568.2C267.339 574.275 264.039 580.864 264.039 580.864C264.039 580.864 257.439 577.602 255.397 571.526C253.355 565.45 253.923 559.781 256.658 558.862C259.393 557.943 263.257 562.122 265.3 568.2Z" fill="white"/>
<path d="M280.5 561.252C277.943 567.128 271.081 569.805 271.081 569.805C271.081 569.805 268.365 562.955 270.922 557.079C273.479 551.203 277.696 547.379 280.341 548.526C282.986 549.673 283.061 555.376 280.5 561.252Z" fill="white"/>
<path d="M1033.56 626.961C1012.98 686.398 953.259 719.661 953.259 719.661C953.259 719.661 926.897 656.561 947.473 597.124C968.049 537.687 1027.77 504.424 1027.77 504.424C1027.77 504.424 1054.13 567.524 1033.56 626.961Z" fill="url(#paint4_linear_15_21)"/>
<path opacity="0.25" d="M963.917 693.1L978.445 651.131L1034.58 623.862C1034.97 622.662 1035.32 621.462 1035.67 620.262L979.723 647.438L994.251 605.469L1041.34 582.596C1041.37 581.559 1041.39 580.525 1041.4 579.496L995.529 601.777L1001.68 584.018L1001.85 583.501L1010.05 559.808L1038.79 545.851C1038.63 544.893 1038.48 543.947 1038.31 543.014L1011.33 556.114L1017.3 538.871L1017.66 537.838L1028.55 506.389C1028.06 505.101 1027.77 504.41 1027.77 504.41C1027.77 504.41 1027.12 504.775 1025.94 505.485L1015.95 534.325L1007.99 517.914C1007.26 518.477 1006.52 519.058 1005.77 519.657L1014.68 538.015L1007.82 557.815L1007.13 559.807L1000.15 580L981.684 541.939C981.017 542.662 980.351 543.395 979.684 544.139L998.875 583.69L992.019 603.49L991.508 604.964L984.346 625.654L958.693 572.784C958.135 573.748 957.585 574.721 957.043 575.704L983.069 629.344L976.213 649.144L975.881 650.102L968.54 671.309L942.24 617.098C941.95 618.665 941.686 620.23 941.449 621.791L967.262 675L960.406 694.8L960.253 695.241L952.487 717.676C952.974 718.964 953.262 719.655 953.262 719.655C953.262 719.655 953.915 719.29 955.094 718.579L962.639 696.784L1004.35 676.523C1005.77 674.862 1007.18 673.155 1008.57 671.402L963.917 693.1Z" fill="white"/>
<path d="M852.623 638.236C879.345 675.996 873.663 725.979 873.663 725.979C873.663 725.979 824.656 714.741 797.934 676.979C771.212 639.217 776.894 589.236 776.894 589.236C776.894 589.236 825.9 600.475 852.623 638.236Z" fill="url(#paint5_linear_15_21)"/>
<path opacity="0.25" d="M862.347 708.232L843.478 681.569L851.211 636.297C850.658 635.555 850.097 634.825 849.526 634.107L841.819 679.225L822.95 652.562L829.437 614.59C828.829 614.127 828.22 613.675 827.61 613.228L821.292 650.218L813.307 638.935L813.075 638.607L802.423 623.555L806.381 600.383C805.742 600.065 805.109 599.755 804.481 599.454L800.764 621.211L793.012 610.257L792.548 609.6L778.409 589.621C777.43 589.361 776.894 589.238 776.894 589.238C776.894 589.238 776.832 589.785 776.752 590.795L789.718 609.116L776.499 606.856C776.524 607.532 776.554 608.226 776.589 608.931L791.377 611.46L800.277 624.042L801.177 625.307L810.247 638.123L779.588 632.88C779.734 633.589 779.887 634.302 780.046 635.019L811.905 640.467L820.805 653.049L821.468 653.986L830.768 667.13L788.18 659.847C788.517 660.594 788.863 661.34 789.219 662.085L832.427 669.474L841.327 682.056L841.757 682.664L851.291 696.137L807.624 688.669C808.437 689.514 809.259 690.341 810.09 691.152L852.95 698.481L861.85 711.063L862.05 711.343L872.148 725.6C873.126 725.86 873.663 725.983 873.663 725.983C873.663 725.983 873.724 725.436 873.804 724.426L864.004 710.58L869.75 676.942C869.366 675.381 868.948 673.808 868.497 672.223L862.347 708.232Z" fill="white"/>
<path d="M102.26 593.026C136.666 641.646 129.35 706 129.35 706C129.35 706 66.25 691.53 31.843 642.91C-2.564 594.29 4.752 529.937 4.752 529.937C4.752 529.937 67.853 544.407 102.26 593.026Z" fill="url(#paint6_linear_15_21)"/>
<path opacity="0.25" d="M114.78 683.152L90.485 648.821L100.442 590.529C99.73 589.575 99.0067 588.635 98.272 587.71L88.349 645.8L64.054 611.472L72.4 562.58C71.618 561.985 70.8343 561.4 70.049 560.826L61.913 608.454L51.637 593.927L51.337 593.504L37.623 574.123L42.723 544.287C41.901 543.878 41.0853 543.478 40.276 543.087L35.487 571.1L25.506 557L24.906 556.154L6.7 530.43C5.44 530.096 4.75 529.937 4.75 529.937C4.75 529.937 4.67 530.637 4.567 531.937L21.267 555.528L4.246 552.618C4.278 553.489 4.318 554.382 4.363 555.29L23.4 558.55L34.864 574.75L36.017 576.38L47.695 592.88L8.22 586.131C8.408 587.044 8.60434 587.962 8.809 588.884L49.831 595.9L61.295 612.1L62.149 613.306L74.126 630.23L19.29 620.853C19.724 621.815 20.17 622.776 20.628 623.735L76.262 633.248L87.726 649.448L88.281 650.232L100.557 667.579L44.331 657.964C45.377 659.052 46.4357 660.119 47.507 661.164L102.693 670.601L114.157 686.801L114.412 687.161L127.4 705.51C128.66 705.845 129.35 706.004 129.35 706.004C129.35 706.004 129.43 705.304 129.533 703.999L116.916 686.17L124.316 642.859C123.821 640.848 123.283 638.823 122.702 636.783L114.78 683.152Z" fill="white"/>
<path d="M202.351 615.59C182.864 671.883 126.301 703.39 126.301 703.39C126.301 703.39 101.334 643.628 120.821 587.336C140.308 531.044 196.871 499.536 196.871 499.536C196.871 499.536 221.838 559.3 202.351 615.59Z" fill="url(#paint7_linear_15_21)"/>
<path opacity="0.25" d="M136.392 678.234L150.153 638.485L203.322 612.658C203.684 611.523 204.022 610.388 204.35 609.252L151.362 634.99L165.122 595.242L209.722 573.579C209.75 572.597 209.769 571.619 209.778 570.645L166.335 591.745L172.158 574.925L172.327 574.436L180.092 552L207.307 538.781C207.16 537.874 207.009 536.979 206.854 536.094L181.3 548.5L186.953 532.17L187.292 531.191L197.6 501.41C197.139 500.19 196.866 499.536 196.866 499.536C196.866 499.536 196.247 499.881 195.13 500.554L185.675 527.868L178.134 512.325C177.444 512.858 176.742 513.409 176.029 513.976L184.465 531.362L177.972 550.119L177.319 552.005L170.705 571.111L153.215 535.064C152.582 535.748 151.949 536.442 151.315 537.146L169.49 574.606L162.997 593.362L162.514 594.762L155.73 614.362L131.43 564.289C130.901 565.202 130.38 566.123 129.867 567.054L154.516 617.854L148.037 636.6L147.723 637.508L140.77 657.6L115.859 606.257C115.584 607.741 115.334 609.222 115.11 610.701L139.561 661.094L133.067 679.851L132.923 680.268L125.567 701.517C126.028 702.737 126.301 703.391 126.301 703.391C126.301 703.391 126.92 703.046 128.037 702.373L135.183 681.73L174.688 662.54C176.034 660.968 177.367 659.352 178.688 657.691L136.392 678.234Z" fill="white"/>
<path d="M792.067 758.406C791.522 758.406 790.984 758.293 790.484 758.076C789.985 757.859 789.536 757.541 789.165 757.142C788.793 756.744 788.508 756.273 788.327 755.76C788.145 755.247 788.071 754.701 788.109 754.158C789.18 738.971 795.967 724.754 807.104 714.372C818.24 703.99 832.898 698.215 848.123 698.211C850.081 698.211 852.016 698.311 853.923 698.491C853.923 698.397 853.923 698.305 853.923 698.211C853.916 684.544 858.563 671.281 867.099 660.607C875.635 649.933 887.551 642.483 900.885 639.484C914.22 636.485 928.178 638.116 940.462 644.108C952.746 650.1 962.624 660.096 968.469 672.45C981.959 667.539 996.416 665.873 1010.67 667.585C1024.92 669.297 1038.57 674.34 1050.52 682.306C1062.46 690.273 1072.36 700.938 1079.42 713.44C1086.48 725.942 1090.49 739.929 1091.14 754.271C1091.16 754.806 1091.08 755.34 1090.89 755.841C1090.7 756.341 1090.41 756.799 1090.04 757.185C1089.67 757.571 1089.23 757.879 1088.73 758.089C1088.24 758.298 1087.71 758.406 1087.18 758.406H908.387C908.387 758.316 908.387 758.227 908.387 758.136L908.279 758.127C908.279 758.22 908.279 758.313 908.279 758.406H792.067Z" fill="url(#paint8_linear_15_21)"/>
<path d="M803.5 718.039C799.205 722.789 795.694 728.193 793.1 734.048C794.618 733.948 796.148 733.892 797.692 733.892C807.767 733.891 817.721 736.083 826.862 740.316C836.004 744.55 844.115 750.722 850.631 758.406H870.438C863.284 746.849 853.482 737.161 841.842 730.142C830.203 723.122 817.06 718.974 803.5 718.039Z" fill="white"/>
<path d="M939.622 709.075C955.283 709.074 970.738 705.496 984.806 698.613C998.873 691.73 1011.18 681.725 1020.79 669.36C1014.5 667.882 1008.07 667.076 1001.6 666.954C992.802 675.945 982.15 682.914 970.385 687.377C958.621 691.841 946.027 693.692 933.476 692.803C920.925 691.914 908.717 688.305 897.7 682.228C886.682 676.151 877.118 667.75 869.671 657.608C865.867 661.77 862.666 666.445 860.161 671.497C869.803 683.247 881.931 692.711 895.672 699.209C909.412 705.707 924.423 709.077 939.622 709.075Z" fill="white"/>
<path d="M1074.37 706.239C1074.55 706.239 1074.73 706.245 1074.92 706.245C1071.01 700.626 1066.49 695.461 1061.44 690.845C1032.78 693.743 1006.02 706.495 985.718 726.926C976.469 736.162 968.716 746.784 962.739 758.408H981.231C991.003 742.477 1004.7 729.317 1021 720.184C1037.31 711.051 1055.68 706.25 1074.37 706.239Z" fill="white"/>
<path d="M310.507 758.385C311.09 758.385 311.667 758.264 312.201 758.031C312.736 757.799 313.216 757.458 313.614 757.032C314.011 756.605 314.317 756.101 314.511 755.552C314.705 755.002 314.785 754.419 314.744 753.837C313.598 737.579 306.332 722.36 294.41 711.247C282.489 700.133 266.798 693.952 250.5 693.948C248.4 693.948 246.334 694.048 244.289 694.248C244.289 694.148 244.289 694.048 244.289 693.948C244.299 679.316 239.326 665.117 230.189 653.688C221.052 642.259 208.295 634.283 194.02 631.073C179.744 627.862 164.801 629.609 151.65 636.025C138.5 642.441 127.927 653.143 121.671 666.371C107.23 661.116 91.7557 659.333 76.4983 661.166C61.241 663 46.6293 668.399 33.8452 676.926C21.061 685.453 10.4633 696.87 2.90911 710.252C-4.64509 723.634 -8.94368 738.607 -9.639 753.958C-9.66355 754.53 -9.5721 755.101 -9.37017 755.637C-9.16823 756.173 -8.85998 756.662 -8.46396 757.076C-8.06795 757.489 -7.59235 757.819 -7.06579 758.044C-6.53923 758.269 -5.9726 758.385 -5.4 758.385H185.992C185.992 758.285 185.992 758.192 185.992 758.095L186.109 758.085C186.109 758.185 186.109 758.285 186.109 758.385H310.507Z" fill="url(#paint9_linear_15_21)"/>
<path d="M168.243 707.951C154.393 707.971 141.047 713.148 130.805 722.471C120.564 731.795 114.16 744.598 112.843 758.385H126.187C127.461 748.129 132.438 738.692 140.183 731.849C147.928 725.006 157.907 721.229 168.242 721.229C178.577 721.229 188.556 725.006 196.301 731.849C204.046 738.692 209.023 748.129 210.297 758.385H223.641C222.324 744.598 215.921 731.796 205.679 722.472C195.438 713.149 182.093 707.972 168.243 707.951Z" fill="white"/>
<path d="M292.013 709.125C284.289 716.541 274.043 720.758 263.336 720.927C252.63 721.096 242.256 717.204 234.302 710.035C226.348 702.866 221.404 692.951 220.463 682.284C219.523 671.617 222.656 660.99 229.233 652.54C226.371 649.127 223.165 646.019 219.666 643.264C210.651 654.229 206.168 668.225 207.135 682.387C208.103 696.549 214.447 709.805 224.869 719.442C235.291 729.079 249.003 734.368 263.198 734.225C277.392 734.082 290.995 728.519 301.221 718.674C298.486 715.184 295.401 711.985 292.013 709.125Z" fill="white"/>
<path d="M88.061 758.385C91.6549 747.331 93.479 735.779 93.466 724.155C93.5253 701.76 86.6998 679.887 73.914 661.5C69.1035 662.199 64.3522 663.258 59.7 664.667C73.0033 681.641 80.2224 702.589 80.2 724.155C80.2099 735.85 78.0889 747.45 73.941 758.385H88.061Z" fill="white"/>
<path d="M655.798 207.786H431.259C408.88 207.786 390.738 225.928 390.738 248.307V715.103C390.738 737.482 408.88 755.624 431.259 755.624H655.798C678.177 755.624 696.319 737.482 696.319 715.103V248.307C696.319 225.928 678.177 207.786 655.798 207.786Z" fill="white"/>
<path d="M689.899 715.101V248.309C689.899 229.477 674.632 214.21 655.8 214.21L431.257 214.21C412.425 214.21 397.158 229.477 397.158 248.309L397.158 715.101C397.158 733.933 412.425 749.2 431.257 749.2H655.8C674.632 749.2 689.899 733.933 689.899 715.101Z" fill="url(#paint10_linear_15_21)"/>
<path d="M579.351 235.376H507.706C499.464 235.376 492.783 242.057 492.783 250.299V250.307C492.783 258.549 499.464 265.23 507.706 265.23H579.351C587.593 265.23 594.274 258.549 594.274 250.307V250.299C594.274 242.057 587.593 235.376 579.351 235.376Z" fill="#3A0CA3"/>
<path d="M608.628 253.41H606.492V255.826H608.628V253.41Z" fill="white"/>
<path d="M612.426 251.365H610.29V255.825H612.426V251.365Z" fill="white"/>
<path d="M616.224 248.748H614.088V255.826H616.224V248.748Z" fill="white"/>
<path d="M620.022 246.66H617.886V255.826H620.022V246.66Z" fill="white"/>
<path d="M623.82 244.849H621.684V255.826H623.82V244.849Z" fill="white"/>
<path d="M627.618 242.984H625.482V255.826H627.618V242.984Z" fill="white"/>
<path d="M651.6 250.493C651.463 250.493 651.33 250.453 651.216 250.377C651.102 250.302 651.013 250.194 650.96 250.068C650.341 248.603 649.303 247.353 647.977 246.474C646.651 245.595 645.096 245.126 643.505 245.126C641.914 245.126 640.359 245.595 639.033 246.474C637.707 247.353 636.67 248.603 636.05 250.068C636.016 250.154 635.965 250.233 635.9 250.299C635.835 250.365 635.758 250.417 635.673 250.453C635.587 250.489 635.495 250.507 635.403 250.507C635.31 250.507 635.219 250.488 635.133 250.452C635.048 250.416 634.971 250.364 634.906 250.297C634.841 250.231 634.791 250.152 634.757 250.066C634.723 249.98 634.707 249.888 634.709 249.795C634.711 249.703 634.732 249.612 634.77 249.527C635.732 247.253 637.541 245.443 639.814 244.479C640.983 243.989 642.237 243.737 643.505 243.737C644.772 243.737 646.026 243.989 647.195 244.479C649.469 245.442 651.278 247.253 652.24 249.527C652.283 249.633 652.3 249.748 652.289 249.861C652.278 249.975 652.239 250.084 652.176 250.18C652.113 250.275 652.027 250.353 651.927 250.408C651.827 250.463 651.714 250.492 651.6 250.493Z" fill="white"/>
<path d="M648.8 251.677C648.663 251.677 648.53 251.637 648.416 251.562C648.302 251.486 648.213 251.379 648.16 251.253C647.646 250.042 646.682 249.078 645.472 248.563C644.849 248.302 644.181 248.168 643.506 248.168C642.832 248.168 642.164 248.302 641.541 248.563C640.33 249.077 639.367 250.041 638.854 251.252C638.769 251.401 638.632 251.513 638.47 251.568C638.308 251.622 638.131 251.616 637.974 251.549C637.816 251.482 637.688 251.36 637.615 251.205C637.541 251.051 637.526 250.875 637.574 250.71C638.067 249.544 638.893 248.549 639.948 247.85C641.003 247.151 642.241 246.778 643.507 246.778C644.773 246.778 646.011 247.151 647.066 247.85C648.121 248.549 648.947 249.544 649.44 250.71C649.511 250.88 649.511 251.071 649.442 251.241C649.373 251.412 649.24 251.548 649.071 251.621C648.985 251.658 648.893 251.677 648.8 251.677Z" fill="white"/>
<path d="M641.078 252.889C640.985 252.889 640.893 252.87 640.807 252.834C640.638 252.761 640.504 252.624 640.435 252.454C640.366 252.283 640.367 252.092 640.438 251.922C640.692 251.319 641.119 250.805 641.664 250.443C642.21 250.081 642.85 249.888 643.504 249.888C644.158 249.888 644.798 250.081 645.344 250.443C645.889 250.805 646.316 251.319 646.57 251.922C646.618 252.087 646.604 252.263 646.53 252.418C646.456 252.573 646.328 252.696 646.17 252.762C646.012 252.829 645.835 252.836 645.673 252.78C645.51 252.725 645.374 252.612 645.289 252.463C645.092 251.998 644.722 251.628 644.258 251.431C644.019 251.331 643.763 251.28 643.504 251.28C643.245 251.28 642.989 251.331 642.75 251.431C642.286 251.629 641.916 251.998 641.718 252.463C641.665 252.589 641.576 252.697 641.462 252.773C641.349 252.848 641.215 252.889 641.078 252.889Z" fill="white"/>
<path d="M644.569 254.008C644.569 254.219 644.507 254.424 644.39 254.6C644.273 254.775 644.106 254.911 643.912 254.992C643.717 255.072 643.503 255.094 643.296 255.052C643.09 255.011 642.9 254.91 642.751 254.761C642.602 254.612 642.501 254.422 642.459 254.216C642.418 254.009 642.439 253.795 642.52 253.6C642.601 253.406 642.737 253.239 642.912 253.122C643.087 253.005 643.293 252.943 643.504 252.943C643.787 252.943 644.057 253.055 644.257 253.255C644.457 253.455 644.569 253.725 644.569 254.008Z" fill="white"/>
<path d="M675.959 247.332C675.665 247.332 675.383 247.215 675.176 247.007C674.968 246.8 674.851 246.518 674.851 246.224V246.139C674.851 245.845 674.734 245.563 674.526 245.356C674.319 245.148 674.037 245.031 673.743 245.031H659.666C659.372 245.031 659.09 245.148 658.883 245.356C658.675 245.563 658.558 245.845 658.558 246.139V252.671C658.558 252.965 658.675 253.247 658.883 253.454C659.09 253.662 659.372 253.779 659.666 253.779H673.743C674.037 253.779 674.319 253.662 674.526 253.454C674.734 253.247 674.851 252.965 674.851 252.671V252.32C674.851 252.026 674.968 251.744 675.176 251.537C675.383 251.329 675.665 251.212 675.959 251.212C676.105 251.212 676.249 251.183 676.383 251.128C676.518 251.072 676.64 250.99 676.742 250.887C676.845 250.784 676.927 250.662 676.982 250.527C677.038 250.393 677.066 250.249 677.066 250.103V248.441C677.066 248.295 677.038 248.151 676.982 248.017C676.926 247.882 676.845 247.76 676.742 247.657C676.639 247.554 676.517 247.473 676.383 247.417C676.249 247.361 676.104 247.332 675.959 247.332Z" fill="white"/>
<path d="M432.857 254.418C433.308 254.443 433.761 254.424 434.209 254.361C435.177 254.242 436.083 253.822 436.8 253.161C437.714 252.285 438.294 251.118 438.439 249.861H438.382C438.03 250.291 437.585 250.635 437.079 250.867C436.574 251.098 436.023 251.21 435.467 251.195C434.972 251.205 434.481 251.113 434.023 250.924C433.565 250.736 433.152 250.454 432.808 250.098C432.465 249.742 432.199 249.318 432.027 248.854C431.855 248.39 431.781 247.895 431.809 247.401C431.788 246.832 431.883 246.265 432.086 245.733C432.289 245.201 432.597 244.715 432.991 244.305C433.386 243.894 433.859 243.568 434.382 243.344C434.906 243.119 435.469 243.003 436.038 243.001C438.572 243.001 440.138 245.06 440.138 248.224C440.196 249.287 440.036 250.351 439.668 251.351C439.3 252.35 438.733 253.264 438 254.037C437.014 254.969 435.749 255.552 434.4 255.695C433.89 255.78 433.373 255.813 432.857 255.795V254.418ZM433.466 247.289C433.431 247.622 433.467 247.959 433.571 248.277C433.675 248.595 433.845 248.888 434.07 249.136C434.295 249.384 434.569 249.582 434.875 249.717C435.182 249.852 435.513 249.921 435.848 249.92C436.333 249.936 436.813 249.824 437.241 249.596C437.669 249.368 438.029 249.031 438.286 248.62C438.395 248.436 438.448 248.224 438.439 248.01C438.439 245.895 437.658 244.274 435.905 244.274C434.476 244.277 433.466 245.535 433.466 247.289Z" fill="white"/>
<path d="M441.794 247.9C441.786 247.746 441.81 247.592 441.863 247.448C441.916 247.304 441.999 247.172 442.105 247.06C442.211 246.948 442.338 246.859 442.48 246.799C442.621 246.738 442.774 246.707 442.928 246.707C443.081 246.707 443.234 246.738 443.375 246.799C443.517 246.859 443.644 246.948 443.75 247.06C443.856 247.172 443.939 247.304 443.992 247.448C444.045 247.592 444.069 247.746 444.061 247.9C444.066 248.052 444.04 248.203 443.985 248.344C443.93 248.486 443.847 248.615 443.741 248.723C443.636 248.832 443.509 248.919 443.369 248.978C443.23 249.037 443.079 249.068 442.928 249.068C442.776 249.068 442.626 249.037 442.486 248.978C442.346 248.919 442.22 248.832 442.114 248.723C442.008 248.615 441.925 248.486 441.87 248.344C441.816 248.203 441.79 248.052 441.794 247.9ZM441.794 254.629C441.786 254.475 441.81 254.321 441.863 254.177C441.916 254.033 441.999 253.901 442.105 253.789C442.211 253.677 442.338 253.588 442.48 253.528C442.621 253.467 442.774 253.436 442.928 253.436C443.081 253.436 443.234 253.467 443.375 253.528C443.517 253.588 443.644 253.677 443.75 253.789C443.856 253.901 443.939 254.033 443.992 254.177C444.045 254.321 444.069 254.475 444.061 254.629C444.066 254.781 444.04 254.932 443.985 255.073C443.93 255.215 443.847 255.344 443.741 255.452C443.636 255.561 443.509 255.648 443.369 255.707C443.23 255.766 443.079 255.797 442.928 255.797C442.776 255.797 442.626 255.766 442.486 255.707C442.346 255.648 442.22 255.561 442.114 255.452C442.008 255.344 441.925 255.215 441.87 255.073C441.816 254.932 441.79 254.781 441.794 254.629Z" fill="white"/>
<path d="M453.835 249.272C453.835 253.484 452.273 255.81 449.535 255.81C447.115 255.81 445.477 253.542 445.435 249.443C445.435 245.288 447.226 243 449.741 243C452.35 243 453.835 245.326 453.835 249.272ZM447.11 249.462C447.11 252.684 448.101 254.514 449.625 254.514C451.34 254.514 452.159 252.514 452.159 249.348C452.159 246.298 451.378 244.296 449.644 244.296C448.177 244.3 447.11 246.088 447.11 249.462Z" fill="white"/>
<path d="M463.611 249.272C463.611 253.484 462.049 255.81 459.311 255.81C456.891 255.81 455.253 253.542 455.211 249.443C455.211 245.288 457.002 243 459.516 243C462.126 243 463.611 245.326 463.611 249.272ZM456.886 249.462C456.886 252.684 457.877 254.514 459.401 254.514C461.116 254.514 461.935 252.514 461.935 249.348C461.935 246.298 461.154 244.296 459.42 244.296C457.953 244.3 456.886 246.088 456.886 249.462Z" fill="white"/>
<path d="M989.708 268.235H976.081V281.87H989.708V268.235Z" fill="url(#paint11_linear_15_21)"/>
<path d="M353.91 229.53H336.732V246.718H353.91V229.53Z" fill="url(#paint12_linear_15_21)"/>
<path d="M186.822 300.767H173.687V313.909H186.822V300.767Z" fill="url(#paint13_linear_15_21)"/>
<path d="M966.801 249.944H958.678V258.072H966.801V249.944Z" fill="#FF8FAB"/>
<path d="M753.593 170.652H737.763V186.491H753.593V170.652Z" fill="#FF8FAB"/>
<path d="M172.191 314.781H153.246V333.736H172.191V314.781Z" fill="#FF8FAB"/>
<path d="M447.349 124.54H437.877V134.018H447.349V124.54Z" fill="#FF8FAB"/>
<path d="M780.302 555.005H767.127V568.188H780.302V555.005Z" fill="#A594F9"/>
<path d="M910.123 222.233H898.242V234.121H910.123V222.233Z" fill="#A594F9"/>
<path d="M764.994 159.67H755.571V169.098H764.994V159.67Z" fill="#A594F9"/>
<path d="M370.839 213.137H357.473V226.511H370.839V213.137Z" fill="#A594F9"/>
<path opacity="0.5" d="M312.787 229.282C313.22 229.282 313.649 229.192 314.046 229.019C314.443 228.846 314.8 228.593 315.096 228.276C315.391 227.959 315.618 227.585 315.762 227.177C315.907 226.768 315.965 226.334 315.935 225.902C315.082 213.821 309.682 202.513 300.823 194.255C291.964 185.997 280.304 181.403 268.193 181.4C266.635 181.4 265.096 181.474 263.577 181.623C263.577 181.548 263.577 181.474 263.577 181.4C263.583 170.527 259.887 159.977 253.097 151.485C246.307 142.993 236.828 137.066 226.221 134.68C215.613 132.293 204.509 133.59 194.737 138.355C184.964 143.121 177.106 151.072 172.455 160.9C161.723 156.994 150.222 155.668 138.883 157.031C127.544 158.393 116.685 162.405 107.184 168.742C97.6825 175.08 89.8062 183.564 84.1919 193.509C78.5775 203.455 75.3828 214.582 74.866 225.991C74.8478 226.416 74.9158 226.841 75.0661 227.239C75.2163 227.638 75.4457 228.002 75.7403 228.309C76.0348 228.616 76.3886 228.861 76.7802 229.028C77.1718 229.195 77.5932 229.281 78.019 229.281H220.252C220.252 229.209 220.252 229.138 220.252 229.066L220.338 229.058C220.338 229.133 220.338 229.206 220.338 229.281L312.787 229.282Z" fill="#F5EFFF"/>
<path opacity="0.5" d="M697.3 179.889C697.661 179.889 698.019 179.814 698.35 179.67C698.681 179.526 698.979 179.315 699.225 179.051C699.472 178.786 699.661 178.474 699.782 178.134C699.902 177.793 699.951 177.431 699.926 177.071C699.215 166.996 694.712 157.565 687.325 150.678C679.937 143.791 670.213 139.96 660.113 139.957C658.813 139.957 657.531 140.021 656.264 140.142C656.264 140.08 656.264 140.019 656.264 139.957C656.269 130.89 653.187 122.091 647.524 115.009C641.862 107.927 633.957 102.985 625.11 100.995C616.264 99.0056 607.004 100.088 598.854 104.063C590.705 108.039 584.152 114.67 580.275 122.867C571.326 119.61 561.736 118.505 552.281 119.642C542.826 120.778 533.771 124.124 525.848 129.408C517.925 134.693 511.358 141.768 506.676 150.061C501.995 158.354 499.331 167.632 498.9 177.146C498.885 177.501 498.942 177.855 499.067 178.187C499.193 178.519 499.384 178.823 499.63 179.079C499.875 179.335 500.17 179.539 500.497 179.678C500.824 179.818 501.175 179.889 501.53 179.889H620.139C620.139 179.829 620.139 179.77 620.139 179.71L620.211 179.704C620.211 179.766 620.211 179.827 620.211 179.889H697.3Z" fill="#F5EFFF"/>
<path opacity="0.5" d="M990.938 347.158C991.294 347.158 991.646 347.084 991.973 346.941C992.3 346.799 992.593 346.591 992.836 346.331C993.079 346.07 993.266 345.762 993.385 345.427C993.504 345.091 993.553 344.734 993.528 344.379C992.826 334.443 988.385 325.143 981.099 318.351C973.813 311.56 964.223 307.782 954.263 307.779C952.982 307.779 951.715 307.84 950.463 307.962C950.463 307.901 950.463 307.84 950.463 307.779C950.468 298.837 947.428 290.159 941.843 283.175C936.259 276.191 928.462 271.317 919.738 269.355C911.013 267.392 901.881 268.459 893.844 272.38C885.807 276.3 879.344 282.841 875.52 290.924C866.694 287.711 857.235 286.621 847.91 287.741C838.584 288.862 829.653 292.162 821.839 297.373C814.025 302.585 807.547 309.563 802.929 317.743C798.312 325.922 795.685 335.074 795.26 344.457C795.247 344.806 795.304 345.155 795.428 345.481C795.552 345.808 795.741 346.106 795.983 346.358C796.225 346.61 796.516 346.811 796.837 346.948C797.159 347.085 797.504 347.157 797.854 347.157H914.835C914.835 347.098 914.835 347.04 914.835 346.981L914.906 346.974C914.906 347.036 914.906 347.096 914.906 347.157L990.938 347.158Z" fill="#F5EFFF"/>
<path d="M625.176 392.044H461.881C443.942 392.044 429.399 406.587 429.399 424.526V587.949C429.399 605.888 443.942 620.431 461.881 620.431H625.176C643.115 620.431 657.658 605.888 657.658 587.949V424.526C657.658 406.587 643.115 392.044 625.176 392.044Z" fill="white"/>
<path d="M498.393 584.983C498.398 581.971 495.96 579.525 492.948 579.52C489.936 579.514 487.49 581.952 487.485 584.964C487.479 587.976 489.917 590.422 492.929 590.427C495.941 590.433 498.387 587.995 498.393 584.983Z" fill="#C7F9CC"/>
<path d="M531.933 584.983C531.938 581.971 529.5 579.525 526.488 579.52C523.476 579.514 521.03 581.952 521.025 584.964C521.019 587.976 523.457 590.422 526.469 590.427C529.481 590.433 531.927 587.995 531.933 584.983Z" fill="#80ED99"/>
<path d="M565.472 584.983C565.478 581.971 563.04 579.525 560.028 579.519C557.016 579.514 554.57 581.952 554.564 584.964C554.559 587.976 556.997 590.422 560.009 590.427C563.021 590.433 565.467 587.995 565.472 584.983Z" fill="#57CC99"/>
<path d="M599.012 584.983C599.018 581.971 596.58 579.525 593.568 579.519C590.556 579.514 588.11 581.952 588.104 584.964C588.099 587.976 590.537 590.422 593.549 590.427C596.561 590.433 599.007 587.995 599.012 584.983Z" fill="#C7F9CC"/>
<path d="M575.132 474.161H562.72V444.741C562.72 439.648 560.697 434.763 557.095 431.161C553.493 427.559 548.608 425.536 543.515 425.536C538.422 425.536 533.537 427.559 529.935 431.161C526.333 434.763 524.31 439.648 524.31 444.741V474.161H511.9V444.741C511.877 440.574 512.677 436.444 514.255 432.587C515.834 428.73 518.159 425.224 521.097 422.269C524.036 419.314 527.529 416.969 531.377 415.369C535.224 413.769 539.35 412.945 543.517 412.945C547.685 412.945 551.811 413.769 555.658 415.369C559.506 416.969 562.999 419.314 565.938 422.269C568.876 425.224 571.201 428.73 572.779 432.587C574.358 436.444 575.158 440.574 575.135 444.741L575.132 474.161Z" fill="#80ED99"/>
<path d="M572.636 458.036H514.394C505.026 458.036 497.431 465.631 497.431 474.999V533.293C497.431 542.662 505.026 550.256 514.394 550.256H572.636C582.004 550.256 589.599 542.662 589.599 533.293V474.999C589.599 465.631 582.004 458.036 572.636 458.036Z" fill="#80ED99"/>
<path d="M543.545 512.215C549.696 512.215 554.683 507.225 554.683 501.07C554.683 494.915 549.696 489.925 543.545 489.925C537.394 489.925 532.407 494.915 532.407 501.07C532.407 507.225 537.394 512.215 543.545 512.215Z" fill="#38A3A5"/>
<path d="M543.545 526.795C542.777 526.795 542.016 526.643 541.306 526.349C540.597 526.055 539.952 525.624 539.409 525.08C538.866 524.537 538.435 523.892 538.142 523.182C537.848 522.472 537.697 521.711 537.697 520.943V507.4C537.697 506.632 537.848 505.871 538.142 505.161C538.435 504.451 538.866 503.806 539.409 503.263C539.952 502.72 540.597 502.288 541.306 501.994C542.016 501.7 542.777 501.548 543.545 501.548C545.097 501.549 546.584 502.165 547.681 503.263C548.778 504.36 549.394 505.848 549.394 507.4V520.942C549.394 521.71 549.243 522.471 548.949 523.181C548.656 523.891 548.225 524.536 547.682 525.08C547.139 525.623 546.494 526.055 545.784 526.349C545.074 526.643 544.313 526.795 543.545 526.795Z" fill="#38A3A5"/>
<path d="M491.079 269.137H246.939C229.112 269.137 214.661 283.588 214.661 301.415V333.504C214.661 351.331 229.112 365.782 246.939 365.782H491.079C508.906 365.782 523.357 351.331 523.357 333.504V301.415C523.357 283.588 508.906 269.137 491.079 269.137Z" fill="white"/>
<path d="M461.935 349.875C479.827 349.875 494.332 335.362 494.332 317.46C494.332 299.558 479.827 285.045 461.935 285.045C444.043 285.045 429.538 299.558 429.538 317.46C429.538 335.362 444.043 349.875 461.935 349.875Z" fill="url(#paint14_linear_15_21)"/>
<path d="M461.899 317.252C467.576 317.252 472.178 312.647 472.178 306.967C472.178 301.287 467.576 296.682 461.899 296.682C456.222 296.682 451.62 301.287 451.62 306.967C451.62 312.647 456.222 317.252 461.899 317.252Z" fill="white"/>
<path d="M477.532 335.408C467.452 339.182 456.346 339.182 446.266 335.408C446.266 331.262 447.913 327.285 450.845 324.354C453.777 321.422 457.753 319.775 461.899 319.775C466.045 319.775 470.021 321.422 472.953 324.354C475.885 327.285 477.532 331.262 477.532 335.408Z" fill="white"/>
<path d="M385.367 328.335C390.539 328.329 394.728 324.13 394.723 318.955C394.717 313.78 390.52 309.589 385.348 309.595C380.176 309.6 375.987 313.799 375.993 318.974C375.998 324.149 380.195 328.34 385.367 328.335Z" fill="#FFAFCC"/>
<path d="M348.342 328.334C353.514 328.329 357.703 324.13 357.698 318.955C357.692 313.78 353.495 309.589 348.323 309.594C343.151 309.6 338.962 313.799 338.968 318.974C338.973 324.149 343.17 328.34 348.342 328.334Z" fill="#FFAFCC"/>
<path d="M311.317 328.334C316.489 328.329 320.678 324.13 320.673 318.955C320.667 313.78 316.47 309.589 311.298 309.594C306.126 309.6 301.937 313.799 301.943 318.974C301.948 324.149 306.145 328.34 311.317 328.334Z" fill="#FFAFCC"/>
<path d="M274.292 328.335C279.464 328.329 283.653 324.13 283.647 318.955C283.642 313.78 279.445 309.589 274.273 309.595C269.101 309.6 264.912 313.799 264.918 318.974C264.923 324.149 269.12 328.34 274.292 328.335Z" fill="#FFAFCC"/>
<path opacity="0.5" d="M726.922 577.96H652.875C629.887 577.96 611.251 596.596 611.251 619.584V619.607C611.251 642.595 629.887 661.231 652.875 661.231H726.922C749.91 661.231 768.546 642.595 768.546 619.607V619.584C768.546 596.596 749.91 577.96 726.922 577.96Z" fill="url(#paint15_linear_15_21)"/>
<path d="M656.689 628.029C661.817 628.029 665.974 623.87 665.974 618.739C665.974 613.608 661.817 609.449 656.689 609.449C651.561 609.449 647.404 613.608 647.404 618.739C647.404 623.87 651.561 628.029 656.689 628.029Z" fill="white"/>
<path d="M689.899 628.029C695.027 628.029 699.184 623.87 699.184 618.739C699.184 613.608 695.027 609.449 689.899 609.449C684.771 609.449 680.614 613.608 680.614 618.739C680.614 623.87 684.771 628.029 689.899 628.029Z" fill="white"/>
<path d="M723.108 628.029C728.236 628.029 732.393 623.87 732.393 618.739C732.393 613.608 728.236 609.449 723.108 609.449C717.98 609.449 713.823 613.608 713.823 618.739C713.823 623.87 717.98 628.029 723.108 628.029Z" fill="white"/>
<path d="M350.821 400.481H278.622C265.172 400.481 254.268 411.385 254.268 424.835V497.102C254.268 510.552 265.172 521.456 278.622 521.456H350.821C364.271 521.456 375.175 510.552 375.175 497.102V424.835C375.175 411.385 364.271 400.481 350.821 400.481Z" fill="url(#paint16_linear_15_21)"/>
<path d="M314.722 502.4C309.184 502.41 303.701 501.303 298.602 499.143C298.192 498.961 297.87 498.625 297.705 498.207C297.54 497.79 297.545 497.324 297.72 496.91C297.895 496.497 298.225 496.169 298.639 495.996C299.054 495.824 299.519 495.821 299.936 495.988C308.051 499.416 317.105 499.917 325.548 497.404C333.992 494.892 341.299 489.523 346.22 482.216C351.141 474.91 353.369 466.12 352.522 457.351C351.676 448.583 347.809 440.381 341.581 434.15C335.354 427.919 327.155 424.047 318.387 423.195C309.619 422.344 300.828 424.567 293.518 429.483C286.209 434.4 280.835 441.704 278.318 450.146C275.801 458.588 276.296 467.642 279.719 475.759C279.896 476.177 279.9 476.649 279.729 477.07C279.559 477.49 279.228 477.826 278.81 478.003C278.391 478.18 277.92 478.184 277.499 478.014C277.078 477.843 276.742 477.512 276.565 477.094C273.098 468.892 272.364 459.792 274.474 451.141C276.583 442.49 281.422 434.748 288.275 429.062C295.128 423.377 303.63 420.049 312.522 419.573C321.413 419.097 330.222 421.498 337.643 426.419C345.064 431.341 350.702 438.522 353.723 446.898C356.743 455.274 356.986 464.401 354.414 472.926C351.842 481.451 346.593 488.921 339.444 494.23C332.295 499.538 323.626 502.403 314.722 502.4Z" fill="white"/>
<path d="M314.722 493.9C307.654 493.898 300.774 491.619 295.101 487.402C289.428 483.185 285.264 477.254 283.225 470.486C281.186 463.718 281.38 456.473 283.779 449.824C286.178 443.175 290.655 437.476 296.545 433.569C302.436 429.662 309.428 427.756 316.487 428.133C323.545 428.509 330.295 431.149 335.736 435.66C341.178 440.172 345.022 446.315 346.7 453.182C348.377 460.048 347.8 467.272 345.052 473.785C344.964 473.992 344.837 474.18 344.677 474.338C344.516 474.495 344.327 474.62 344.118 474.705C343.91 474.789 343.687 474.832 343.462 474.83C343.237 474.828 343.015 474.782 342.807 474.694C342.6 474.607 342.413 474.479 342.255 474.319C342.097 474.159 341.972 473.969 341.888 473.761C341.803 473.552 341.761 473.329 341.763 473.104C341.764 472.879 341.81 472.657 341.898 472.45C344.551 466.154 344.934 459.131 342.98 452.583C341.026 446.036 336.858 440.371 331.188 436.559C325.518 432.746 318.699 431.022 311.899 431.682C305.098 432.343 298.738 435.346 293.908 440.178C289.078 445.011 286.077 451.371 285.419 458.172C284.761 464.973 286.488 471.791 290.303 477.46C294.118 483.128 299.784 487.294 306.332 489.245C312.88 491.197 319.903 490.812 326.198 488.156C326.615 487.989 327.08 487.992 327.495 488.164C327.909 488.337 328.239 488.665 328.414 489.079C328.589 489.492 328.594 489.958 328.429 490.375C328.264 490.793 327.942 491.129 327.532 491.311C323.48 493.027 319.123 493.908 314.722 493.9Z" fill="white"/>
<path d="M314.722 484.534C311.627 484.536 308.563 483.927 305.704 482.743C302.845 481.559 300.247 479.823 298.06 477.634C295.872 475.445 294.138 472.847 292.955 469.987C291.773 467.127 291.166 464.063 291.169 460.968C291.169 460.743 291.213 460.521 291.299 460.313C291.385 460.105 291.511 459.917 291.67 459.758C291.829 459.599 292.018 459.472 292.226 459.386C292.434 459.3 292.656 459.256 292.881 459.256C293.106 459.256 293.328 459.3 293.536 459.386C293.744 459.472 293.933 459.599 294.092 459.758C294.251 459.917 294.377 460.105 294.463 460.313C294.549 460.521 294.593 460.743 294.593 460.968C294.59 465.635 296.206 470.157 299.165 473.766C302.123 477.375 306.242 479.845 310.818 480.757C315.395 481.669 320.146 480.966 324.262 478.767C328.377 476.568 331.603 473.01 333.389 468.699C335.175 464.388 335.411 459.591 334.056 455.125C332.701 450.66 329.84 446.802 325.959 444.211C322.079 441.619 317.42 440.453 312.776 440.912C308.132 441.371 303.791 443.426 300.493 446.727C300.171 447.045 299.736 447.223 299.284 447.221C298.831 447.219 298.398 447.039 298.078 446.719C297.758 446.399 297.578 445.965 297.577 445.513C297.575 445.061 297.753 444.626 298.071 444.304C300.812 441.564 304.186 439.541 307.895 438.416C311.604 437.292 315.533 437.099 319.334 437.855C323.135 438.612 326.691 440.294 329.687 442.754C332.683 445.213 335.026 448.373 336.508 451.954C337.991 455.535 338.567 459.426 338.186 463.283C337.806 467.14 336.479 470.844 334.325 474.066C332.171 477.288 329.256 479.929 325.837 481.755C322.418 483.581 318.602 484.535 314.726 484.534H314.722Z" fill="white"/>
<path d="M314.722 475.382C312.587 475.381 310.478 474.906 308.549 473.991C306.62 473.077 304.918 471.744 303.567 470.091C302.215 468.438 301.248 466.506 300.735 464.433C300.221 462.361 300.175 460.2 300.599 458.107C301.022 456.015 301.906 454.042 303.185 452.333C304.464 450.623 306.107 449.219 307.995 448.222C309.883 447.225 311.969 446.66 314.103 446.567C316.236 446.475 318.363 446.858 320.33 447.688C320.733 447.875 321.047 448.21 321.207 448.624C321.367 449.038 321.36 449.498 321.188 449.907C321.015 450.316 320.691 450.643 320.283 450.817C319.875 450.992 319.415 451.001 319 450.843C316.823 449.919 314.406 449.722 312.107 450.279C309.808 450.837 307.751 452.12 306.239 453.939C304.727 455.758 303.841 458.016 303.713 460.378C303.585 462.739 304.221 465.08 305.527 467.051C306.834 469.023 308.74 470.522 310.965 471.325C313.19 472.128 315.614 472.193 317.878 471.511C320.143 470.828 322.127 469.434 323.537 467.535C324.948 465.636 325.708 463.333 325.707 460.968C325.707 460.514 325.887 460.078 326.208 459.757C326.529 459.436 326.965 459.256 327.419 459.256C327.873 459.256 328.309 459.436 328.63 459.757C328.951 460.078 329.131 460.514 329.131 460.968C329.133 462.861 328.762 464.735 328.038 466.484C327.315 468.233 326.254 469.822 324.917 471.161C323.579 472.5 321.99 473.562 320.241 474.286C318.493 475.01 316.619 475.383 314.726 475.382H314.722Z" fill="white"/>
<path d="M800.919 381.633H731.019C718.115 381.633 707.654 392.094 707.654 404.998V510.59C707.654 523.494 718.115 533.955 731.019 533.955H800.919C813.823 533.955 824.284 523.494 824.284 510.59V404.998C824.284 392.094 813.823 381.633 800.919 381.633Z" fill="url(#paint17_linear_15_21)"/>
<path d="M764.362 447.306H735.8C734.838 447.306 733.885 447.116 732.997 446.747C732.108 446.379 731.3 445.839 730.62 445.159C729.94 444.478 729.401 443.671 729.033 442.782C728.665 441.893 728.476 440.94 728.476 439.978C728.476 439.016 728.665 438.063 729.033 437.174C729.401 436.285 729.94 435.478 730.62 434.797C731.3 434.117 732.108 433.577 732.997 433.208C733.885 432.84 734.838 432.65 735.8 432.65H764.358C765.32 432.65 766.273 432.84 767.161 433.208C768.05 433.577 768.858 434.117 769.538 434.797C770.218 435.478 770.757 436.285 771.125 437.174C771.493 438.063 771.682 439.016 771.682 439.978C771.683 441.92 770.912 443.783 769.539 445.157C768.166 446.531 766.304 447.304 764.362 447.306Z" fill="#FAE588"/>
<path d="M791.257 464.838H735.806C731.76 464.838 728.48 468.118 728.48 472.164V472.168C728.48 476.214 731.76 479.494 735.806 479.494H791.257C795.303 479.494 798.583 476.214 798.583 472.168V472.164C798.583 468.118 795.303 464.838 791.257 464.838Z" fill="white"/>
<path d="M776.885 511.682H735.8C734.838 511.682 733.885 511.492 732.997 511.124C732.108 510.755 731.3 510.215 730.62 509.535C729.94 508.854 729.401 508.047 729.033 507.158C728.665 506.269 728.476 505.316 728.476 504.354C728.476 503.392 728.665 502.439 729.033 501.551C729.401 500.662 729.94 499.854 730.62 499.174C731.3 498.493 732.108 497.953 732.997 497.585C733.885 497.217 734.838 497.027 735.8 497.027H776.881C777.843 497.027 778.796 497.217 779.684 497.585C780.573 497.953 781.38 498.493 782.061 499.174C782.741 499.854 783.28 500.662 783.648 501.551C784.016 502.439 784.205 503.392 784.205 504.354C784.206 506.296 783.435 508.159 782.062 509.534C780.689 510.908 778.827 511.681 776.885 511.682Z" fill="#F9DC5C"/>
<path d="M852.235 369.498H770.607C762.73 369.498 756.344 375.884 756.344 383.761V405.573C756.344 413.45 762.73 419.836 770.607 419.836H852.235C860.112 419.836 866.498 413.45 866.498 405.573V383.761C866.498 375.884 860.112 369.498 852.235 369.498Z" fill="white"/>
<path d="M788.219 391.7H784.858V383.734C784.858 382.355 784.31 381.032 783.335 380.057C782.36 379.082 781.037 378.534 779.658 378.534C778.279 378.534 776.956 379.082 775.981 380.057C775.006 381.032 774.458 382.355 774.458 383.734V391.7H771.1V383.734C771.1 381.463 772.002 379.286 773.608 377.68C775.213 376.074 777.391 375.172 779.661 375.172C781.932 375.172 784.11 376.074 785.715 377.68C787.321 379.286 788.223 381.463 788.223 383.734L788.219 391.7Z" fill="#80ED99"/>
<path d="M787.474 387.333H771.842C769.267 387.333 767.179 389.421 767.179 391.996V407.642C767.179 410.217 769.267 412.305 771.842 412.305H787.474C790.049 412.305 792.137 410.217 792.137 407.642V391.996C792.137 389.421 790.049 387.333 787.474 387.333Z" fill="#80ED99"/>
<path d="M782.682 398.986C782.682 399.582 782.504 400.165 782.173 400.661C781.841 401.157 781.37 401.543 780.819 401.771C780.268 401.999 779.661 402.058 779.076 401.942C778.491 401.825 777.954 401.538 777.533 401.116C777.111 400.694 776.824 400.157 776.708 399.572C776.592 398.987 776.651 398.38 776.88 397.829C777.108 397.278 777.495 396.807 777.991 396.476C778.487 396.145 779.07 395.968 779.666 395.968C780.062 395.968 780.455 396.046 780.821 396.198C781.187 396.35 781.519 396.572 781.799 396.852C782.079 397.132 782.302 397.465 782.453 397.831C782.604 398.197 782.682 398.59 782.682 398.986Z" fill="#38A3A5"/>
<path d="M779.843 399.116H779.49C778.713 399.116 778.083 399.746 778.083 400.523V404.545C778.083 405.322 778.713 405.952 779.49 405.952H779.843C780.62 405.952 781.25 405.322 781.25 404.545V400.523C781.25 399.746 780.62 399.116 779.843 399.116Z" fill="#38A3A5"/>
<path d="M805.861 398.678C808.076 398.678 809.872 396.882 809.872 394.667C809.872 392.452 808.076 390.656 805.861 390.656C803.646 390.656 801.85 392.452 801.85 394.667C801.85 396.882 803.646 398.678 805.861 398.678Z" fill="#80ED99"/>
<path d="M821.699 398.678C823.914 398.678 825.71 396.882 825.71 394.667C825.71 392.452 823.914 390.656 821.699 390.656C819.484 390.656 817.688 392.452 817.688 394.667C817.688 396.882 819.484 398.678 821.699 398.678Z" fill="#80ED99"/>
<path d="M837.538 398.678C839.753 398.678 841.549 396.882 841.549 394.667C841.549 392.452 839.753 390.656 837.538 390.656C835.323 390.656 833.527 392.452 833.527 394.667C833.527 396.882 835.323 398.678 837.538 398.678Z" fill="#80ED99"/>
<path d="M853.376 398.678C855.591 398.678 857.387 396.882 857.387 394.667C857.387 392.452 855.591 390.656 853.376 390.656C851.161 390.656 849.365 392.452 849.365 394.667C849.365 396.882 851.161 398.678 853.376 398.678Z" fill="#80ED99"/>
<path d="M388.143 661.9H278.853C276.838 661.899 274.842 661.502 272.981 660.73C271.119 659.959 269.428 658.828 268.003 657.402C266.579 655.977 265.449 654.285 264.678 652.423C263.908 650.561 263.511 648.565 263.512 646.55V564.04C263.511 562.025 263.908 560.029 264.678 558.167C265.449 556.305 266.579 554.613 268.003 553.188C269.428 551.762 271.119 550.631 272.981 549.86C274.842 549.088 276.838 548.69 278.853 548.69H297.11C299.88 548.69 302.606 549.389 305.034 550.723C307.462 552.057 309.514 553.982 311 556.32L314.02 561.071C314.945 562.526 316.222 563.724 317.732 564.554C319.243 565.384 320.939 565.819 322.663 565.819H388.143C392.213 565.82 396.116 567.438 398.993 570.317C401.87 573.196 403.486 577.1 403.485 581.17V646.549C403.486 648.564 403.089 650.56 402.319 652.422C401.548 654.284 400.418 655.977 398.993 657.402C397.569 658.828 395.877 659.958 394.016 660.73C392.154 661.502 390.158 661.899 388.143 661.9Z" fill="url(#paint18_linear_15_21)"/>
<path d="M346.31 608.807H341.191V596.674C341.203 595.626 341.007 594.587 340.614 593.615C340.221 592.644 339.64 591.76 338.903 591.016C338.166 590.271 337.289 589.679 336.322 589.275C335.355 588.872 334.318 588.664 333.271 588.664C332.223 588.664 331.186 588.872 330.219 589.275C329.252 589.679 328.375 590.271 327.638 591.016C326.901 591.76 326.32 592.644 325.927 593.615C325.534 594.587 325.338 595.626 325.35 596.674V608.807H320.231V596.674C320.216 594.952 320.542 593.244 321.191 591.649C321.839 590.054 322.797 588.603 324.01 587.38C325.222 586.157 326.664 585.186 328.254 584.523C329.843 583.861 331.548 583.52 333.271 583.52C334.993 583.52 336.698 583.861 338.287 584.523C339.877 585.186 341.319 586.157 342.531 587.38C343.744 588.603 344.702 590.054 345.35 591.649C345.999 593.244 346.325 594.952 346.31 596.674V608.807Z" fill="#FEFCF3"/>
<path d="M345.135 602.157H321.407C317.463 602.157 314.265 605.355 314.265 609.299V633.048C314.265 636.992 317.463 640.19 321.407 640.19H345.135C349.079 640.19 352.277 636.992 352.277 633.048V609.299C352.277 605.355 349.079 602.157 345.135 602.157Z" fill="#FEFCF3"/>
<path d="M333.284 624.499C335.821 624.499 337.878 622.442 337.878 619.905C337.878 617.368 335.821 615.311 333.284 615.311C330.747 615.311 328.69 617.368 328.69 619.905C328.69 622.442 330.747 624.499 333.284 624.499Z" fill="#FF9800"/>
<path d="M334.288 620.102H332.278C331.501 620.102 330.871 620.732 330.871 621.509V629.107C330.871 629.884 331.501 630.514 332.278 630.514H334.288C335.065 630.514 335.695 629.884 335.695 629.107V621.509C335.695 620.732 335.065 620.102 334.288 620.102Z" fill="#FF9800"/>
<path d="M713.232 273.387H592.067C578.492 273.387 567.487 284.392 567.487 297.967V347.339C567.487 360.914 578.492 371.919 592.067 371.919H713.232C726.807 371.919 737.812 360.914 737.812 347.339V297.967C737.812 284.392 726.807 273.387 713.232 273.387Z" fill="white"/>
<path d="M616.575 298.556H601.084C597.854 298.556 595.235 301.175 595.235 304.405V349.91C595.235 353.14 597.854 355.759 601.084 355.759H616.575C619.805 355.759 622.424 353.14 622.424 349.91V304.405C622.424 301.175 619.805 298.556 616.575 298.556Z" fill="#FCEFB4"/>
<path d="M660.413 298.556H644.922C641.692 298.556 639.073 301.175 639.073 304.405V349.91C639.073 353.14 641.692 355.759 644.922 355.759H660.413C663.643 355.759 666.262 353.14 666.262 349.91V304.405C666.262 301.175 663.643 298.556 660.413 298.556Z" fill="#FCEFB4"/>
<path d="M704.25 298.556H688.759C685.529 298.556 682.91 301.175 682.91 304.405V349.91C682.91 353.14 685.529 355.759 688.759 355.759H704.25C707.48 355.759 710.099 353.14 710.099 349.91V304.405C710.099 301.175 707.48 298.556 704.25 298.556Z" fill="#FCEFB4"/>
<path d="M616.575 334.023H601.084C597.854 334.023 595.235 336.642 595.235 339.872V349.91C595.235 353.14 597.854 355.759 601.084 355.759H616.575C619.805 355.759 622.424 353.14 622.424 349.91V339.872C622.424 336.642 619.805 334.023 616.575 334.023Z" fill="#F9DC5C"/>
<path d="M660.413 310.977H644.922C641.692 310.977 639.073 313.596 639.073 316.826V349.909C639.073 353.139 641.692 355.758 644.922 355.758H660.413C663.643 355.758 666.262 353.139 666.262 349.909V316.826C666.262 313.596 663.643 310.977 660.413 310.977Z" fill="#F9DC5C"/>
<path d="M704.25 326.013H688.759C685.529 326.013 682.91 328.632 682.91 331.862V349.909C682.91 353.139 685.529 355.758 688.759 355.758H704.25C707.48 355.758 710.099 353.139 710.099 349.909V331.862C710.099 328.632 707.48 326.013 704.25 326.013Z" fill="#F9DC5C"/>
<path d="M780.109 218.309H731.22C721.683 218.309 713.951 226.041 713.951 235.578V284.514C713.951 294.051 721.683 301.783 731.22 301.783H780.109C789.646 301.783 797.378 294.051 797.378 284.514V235.578C797.378 226.041 789.646 218.309 780.109 218.309Z" fill="url(#paint19_linear_15_21)"/>
<path d="M768.686 253.345H763.567V241.212C763.579 240.164 763.383 239.125 762.99 238.154C762.597 237.182 762.016 236.299 761.279 235.554C760.542 234.809 759.665 234.217 758.698 233.814C757.731 233.41 756.694 233.202 755.646 233.202C754.599 233.202 753.562 233.41 752.595 233.814C751.628 234.217 750.751 234.809 750.014 235.554C749.277 236.299 748.696 237.182 748.303 238.154C747.91 239.125 747.714 240.164 747.726 241.212V253.345H742.607V241.212C742.607 237.754 743.981 234.437 746.426 231.992C748.872 229.546 752.188 228.173 755.646 228.173C759.105 228.173 762.421 229.546 764.867 231.992C767.312 234.437 768.686 237.754 768.686 241.212V253.345Z" fill="#FEFCF3"/>
<path d="M767.511 246.695H743.783C739.839 246.695 736.641 249.893 736.641 253.837V277.586C736.641 281.53 739.839 284.728 743.783 284.728H767.511C771.455 284.728 774.653 281.53 774.653 277.586V253.837C774.653 249.893 771.455 246.695 767.511 246.695Z" fill="#FEFCF3"/>
<path d="M755.668 269.037C758.206 269.032 760.258 266.971 760.253 264.434C760.248 261.896 758.187 259.844 755.65 259.849C753.113 259.854 751.06 261.915 751.065 264.452C751.07 266.989 753.131 269.042 755.668 269.037Z" fill="#FF9800"/>
<path d="M756.664 264.64H754.654C753.877 264.64 753.247 265.27 753.247 266.047V273.645C753.247 274.422 753.877 275.052 754.654 275.052H756.664C757.441 275.052 758.071 274.422 758.071 273.645V266.047C758.071 265.27 757.441 264.64 756.664 264.64Z" fill="#FF9800"/>
<path d="M201.269 365.422H121.902C110.791 365.422 101.783 374.429 101.783 385.541V464.975C101.783 476.086 110.791 485.094 121.902 485.094H201.269C212.38 485.094 221.388 476.086 221.388 464.975V385.541C221.388 374.429 212.38 365.422 201.269 365.422Z" fill="white"/>
<path d="M185.467 417.567C185.466 413.728 184.539 409.945 182.766 406.54C180.992 403.135 178.423 400.208 175.277 398.007C172.132 395.805 168.501 394.395 164.695 393.895C160.888 393.396 157.017 393.821 153.41 395.135C149.802 396.45 146.565 398.615 143.972 401.447C141.38 404.279 139.508 407.694 138.516 411.403C137.524 415.112 137.441 419.005 138.274 422.753C139.106 426.501 140.831 429.993 143.3 432.933L161.589 456.845L179.557 433.306C183.375 428.953 185.476 423.357 185.467 417.567ZM161.586 409.115C163.258 409.114 164.892 409.609 166.283 410.537C167.674 411.465 168.758 412.785 169.398 414.329C170.039 415.873 170.207 417.573 169.881 419.213C169.556 420.853 168.751 422.359 167.569 423.542C166.387 424.724 164.881 425.53 163.242 425.856C161.602 426.183 159.902 426.016 158.358 425.376C156.813 424.736 155.493 423.653 154.564 422.263C153.635 420.873 153.139 419.239 153.139 417.567C153.138 415.326 154.028 413.177 155.612 411.592C157.196 410.007 159.345 409.116 161.586 409.115Z" fill="#FF8FAB"/>
<path d="M121.455 332.885H82.113C74.8184 332.885 68.905 338.798 68.905 346.093V385.472C68.905 392.767 74.8184 398.68 82.113 398.68H121.455C128.75 398.68 134.663 392.767 134.663 385.472V346.093C134.663 338.798 128.75 332.885 121.455 332.885Z" fill="white"/>
<path d="M111.806 360.883H107.87V351.552C107.87 349.936 107.228 348.387 106.086 347.245C104.944 346.103 103.394 345.461 101.779 345.461C100.164 345.461 98.6143 346.103 97.472 347.245C96.3297 348.387 95.688 349.936 95.688 351.552V360.883H91.752V351.552C91.752 348.893 92.8084 346.342 94.6888 344.462C96.5693 342.581 99.1197 341.525 101.779 341.525C104.438 341.525 106.989 342.581 108.869 344.462C110.75 346.342 111.806 348.893 111.806 351.552V360.883Z" fill="#80ED99"/>
<path d="M110.875 355.769H92.683C89.6349 355.769 87.164 358.24 87.164 361.288V379.497C87.164 382.545 89.6349 385.016 92.683 385.016H110.875C113.923 385.016 116.394 382.545 116.394 379.497V361.288C116.394 358.24 113.923 355.769 110.875 355.769Z" fill="#80ED99"/>
<path d="M101.8 372.947C103.751 372.942 105.327 371.356 105.322 369.405C105.316 367.454 103.73 365.878 101.779 365.883C99.8283 365.889 98.2518 367.475 98.2576 369.426C98.2635 371.377 99.8495 372.953 101.8 372.947Z" fill="#38A3A5"/>
<path d="M102.237 369.569H101.341C100.564 369.569 99.934 370.199 99.934 370.976V376.168C99.934 376.945 100.564 377.575 101.341 377.575H102.237C103.014 377.575 103.644 376.945 103.644 376.168V370.976C103.644 370.199 103.014 369.569 102.237 369.569Z" fill="#38A3A5"/>
<path d="M955.161 436.499H877.088C862.741 436.499 851.111 448.129 851.111 462.476V583.448C851.111 597.795 862.741 609.425 877.088 609.425H955.161C969.508 609.425 981.138 597.795 981.138 583.448V462.476C981.138 448.129 969.508 436.499 955.161 436.499Z" fill="white"/>
<path d="M871.874 459.117C873.93 459.112 875.593 457.441 875.588 455.385C875.582 453.329 873.911 451.666 871.855 451.671C869.799 451.677 868.136 453.348 868.142 455.404C868.147 457.46 869.818 459.123 871.874 459.117Z" fill="#FF8FAB"/>
<path d="M883.479 459.117C885.535 459.112 887.198 457.441 887.193 455.385C887.187 453.329 885.516 451.666 883.46 451.671C881.404 451.677 879.741 453.348 879.747 455.404C879.752 457.46 881.423 459.123 883.479 459.117Z" fill="#FAE588"/>
<path d="M895.085 459.117C897.141 459.112 898.804 457.441 898.799 455.385C898.793 453.329 897.122 451.666 895.066 451.671C893.01 451.677 891.347 453.348 891.353 455.404C891.358 457.46 893.029 459.123 895.085 459.117Z" fill="#80ED99"/>
<path d="M899.673 486.463H873.349C866.856 486.463 861.592 491.727 861.592 498.22V524.572C861.592 531.065 866.856 536.329 873.349 536.329H899.673C906.166 536.329 911.43 531.065 911.43 524.572V498.22C911.43 491.727 906.166 486.463 899.673 486.463Z" fill="#FF8FAB"/>
<path d="M958.421 486.771H932.097C925.604 486.771 920.34 492.035 920.34 498.528V524.88C920.34 531.373 925.604 536.637 932.097 536.637H958.421C964.914 536.637 970.178 531.373 970.178 524.88V498.528C970.178 492.035 964.914 486.771 958.421 486.771Z" fill="#80ED99"/>
<path d="M899.673 546.42H873.349C866.856 546.42 861.592 551.684 861.592 558.177V584.529C861.592 591.022 866.856 596.286 873.349 596.286H899.673C906.166 596.286 911.43 591.022 911.43 584.529V558.177C911.43 551.684 906.166 546.42 899.673 546.42Z" fill="#F9DC5C"/>
<path d="M958.421 546.728H932.097C925.604 546.728 920.34 551.992 920.34 558.485V584.837C920.34 591.33 925.604 596.594 932.097 596.594H958.421C964.914 596.594 970.178 591.33 970.178 584.837V558.485C970.178 551.992 964.914 546.728 958.421 546.728Z" fill="#A594F9"/>
<path d="M1003.94 400.27H957.741C950.446 400.27 944.533 406.183 944.533 413.478V459.718C944.533 467.013 950.446 472.926 957.741 472.926H1003.94C1011.23 472.926 1017.15 467.013 1017.15 459.718V413.478C1017.15 406.183 1011.23 400.27 1003.94 400.27Z" fill="white"/>
<path d="M991.908 431.187H987.561V420.887C987.561 419.103 986.852 417.392 985.591 416.131C984.33 414.87 982.619 414.161 980.835 414.161C979.051 414.161 977.34 414.87 976.079 416.131C974.818 417.392 974.109 419.103 974.109 420.887V431.187H969.762V420.887C969.762 417.95 970.929 415.134 973.005 413.057C975.082 410.981 977.898 409.814 980.835 409.814C983.772 409.814 986.588 410.981 988.665 413.057C990.741 415.134 991.908 417.95 991.908 420.887V431.187Z" fill="#F9DC5C"/>
<path d="M991.005 425.54H970.665C967.368 425.54 964.696 428.212 964.696 431.509V451.867C964.696 455.164 967.368 457.836 970.665 457.836H991.005C994.302 457.836 996.974 455.164 996.974 451.867V431.509C996.974 428.212 994.302 425.54 991.005 425.54Z" fill="#F9DC5C"/>
<path d="M980.846 444.512C983 444.512 984.747 442.765 984.747 440.611C984.747 438.456 983 436.71 980.846 436.71C978.692 436.71 976.945 438.456 976.945 440.611C976.945 442.765 978.692 444.512 980.846 444.512Z" fill="#FF9800"/>
<path d="M981.488 440.779H980.205C979.428 440.779 978.798 441.409 978.798 442.186V448.213C978.798 448.99 979.428 449.62 980.205 449.62H981.488C982.265 449.62 982.895 448.99 982.895 448.213V442.186C982.895 441.409 982.265 440.779 981.488 440.779Z" fill="#FF9800"/>
</g>
<defs>
<radialGradient id="paint0_radial_15_21" cx="0" cy="0" r="1" gradientUnits="userSpaceOnUse" gradientTransform="translate(211.057 1477.12) scale(364.431 32.4712)">
<stop stop-color="#7371FC"/>
<stop offset="0.14" stop-color="#9594FC"/>
<stop offset="0.319" stop-color="#BBBAFD"/>
<stop offset="0.498" stop-color="#D8D8FE"/>
<stop offset="0.672" stop-color="#EEEDFE"/>
<stop offset="0.842" stop-color="#FAFAFE"/>
<stop offset="1" stop-color="white"/>
</radialGradient>
<radialGradient id="paint1_radial_15_21" cx="0" cy="0" r="1" gradientUnits="userSpaceOnUse" gradientTransform="translate(-99.2917 2422.93) scale(250.063 13.4266)">
<stop stop-color="#7371FC"/>
<stop offset="0.14" stop-color="#9594FC"/>
<stop offset="0.319" stop-color="#BBBAFD"/>
<stop offset="0.498" stop-color="#D8D8FE"/>
<stop offset="0.672" stop-color="#EEEDFE"/>
<stop offset="0.842" stop-color="#FAFAFE"/>
<stop offset="1" stop-color="white"/>
</radialGradient>
<radialGradient id="paint2_radial_15_21" cx="0" cy="0" r="1" gradientUnits="userSpaceOnUse" gradientTransform="translate(702.887 2426.66) scale(250.063 13.4266)">
<stop stop-color="#7371FC"/>
<stop offset="0.14" stop-color="#9594FC"/>
<stop offset="0.319" stop-color="#BBBAFD"/>
<stop offset="0.498" stop-color="#D8D8FE"/>
<stop offset="0.672" stop-color="#EEEDFE"/>
<stop offset="0.842" stop-color="#FAFAFE"/>
<stop offset="1" stop-color="white"/>
</radialGradient>
<linearGradient id="paint3_linear_15_21" x1="440.365" y1="1822.68" x2="332.372" y2="1743.34" gradientUnits="userSpaceOnUse">
<stop stop-color="#A57EE3"/>
<stop offset="0.88" stop-color="#A2C7FB"/>
<stop offset="1" stop-color="#A2D2FF"/>
</linearGradient>
<linearGradient id="paint4_linear_15_21" x1="410.606" y1="697.492" x2="432.315" y2="456.218" gradientUnits="userSpaceOnUse">
<stop stop-color="#A594F9"/>
<stop offset="0.189" stop-color="#B08CEB"/>
<stop offset="0.546" stop-color="#D079C6"/>
<stop offset="1" stop-color="#FF5D8F"/>
</linearGradient>
<linearGradient id="paint5_linear_15_21" x1="1677.54" y1="1043.36" x2="1684.41" y2="864.766" gradientUnits="userSpaceOnUse">
<stop stop-color="#7371FC"/>
<stop offset="1" stop-color="#A57EE3"/>
</linearGradient>
<linearGradient id="paint6_linear_15_21" x1="1081.06" y1="601.066" x2="1089.91" y2="371.119" gradientUnits="userSpaceOnUse">
<stop stop-color="#7371FC"/>
<stop offset="1" stop-color="#A57EE3"/>
</linearGradient>
<linearGradient id="paint7_linear_15_21" x1="-375.968" y1="951.888" x2="-355.406" y2="723.17" gradientUnits="userSpaceOnUse">
<stop stop-color="#A594F9"/>
<stop offset="0.189" stop-color="#B08CEB"/>
<stop offset="0.546" stop-color="#D079C6"/>
<stop offset="1" stop-color="#FF5D8F"/>
</linearGradient>
<linearGradient id="paint8_linear_15_21" x1="720.823" y1="755.637" x2="897.756" y2="523.154" gradientUnits="userSpaceOnUse">
<stop stop-color="#57CC99"/>
<stop offset="0.334" stop-color="#7DDBAA"/>
<stop offset="1" stop-color="#C7F9CC"/>
</linearGradient>
<linearGradient id="paint9_linear_15_21" x1="26.6896" y1="834.941" x2="62.4604" y2="652.862" gradientUnits="userSpaceOnUse">
<stop stop-color="#57CC99"/>
<stop offset="0.334" stop-color="#7DDBAA"/>
<stop offset="1" stop-color="#C7F9CC"/>
</linearGradient>
<linearGradient id="paint10_linear_15_21" x1="274.5" y1="480.1" x2="798.217" y2="481.061" gradientUnits="userSpaceOnUse">
<stop stop-color="#7371FC"/>
<stop offset="1" stop-color="#A57EE3"/>
</linearGradient>
<linearGradient id="paint11_linear_15_21" x1="974.677" y1="284.76" x2="988.546" y2="268.407" gradientUnits="userSpaceOnUse">
<stop offset="0.166" stop-color="#FEC55E"/>
<stop offset="0.518" stop-color="#FCCA5D"/>
<stop offset="0.972" stop-color="#F9DA5C"/>
<stop offset="1" stop-color="#F9DC5C"/>
</linearGradient>
<linearGradient id="paint12_linear_15_21" x1="334.963" y1="250.362" x2="352.445" y2="229.746" gradientUnits="userSpaceOnUse">
<stop offset="0.166" stop-color="#FEC55E"/>
<stop offset="0.518" stop-color="#FCCA5D"/>
<stop offset="0.972" stop-color="#F9DA5C"/>
<stop offset="1" stop-color="#F9DC5C"/>
</linearGradient>
<linearGradient id="paint13_linear_15_21" x1="172.334" y1="316.695" x2="185.701" y2="300.932" gradientUnits="userSpaceOnUse">
<stop offset="0.166" stop-color="#FEC55E"/>
<stop offset="0.518" stop-color="#FCCA5D"/>
<stop offset="0.972" stop-color="#F9DA5C"/>
<stop offset="1" stop-color="#F9DC5C"/>
</linearGradient>
<linearGradient id="paint14_linear_15_21" x1="429.538" y1="317.46" x2="494.332" y2="317.46" gradientUnits="userSpaceOnUse">
<stop offset="0.101" stop-color="#F686BD"/>
<stop offset="0.525" stop-color="#F787B9"/>
<stop offset="0.945" stop-color="#FD8DAD"/>
<stop offset="1" stop-color="#FF8FAB"/>
</linearGradient>
<linearGradient id="paint15_linear_15_21" x1="611.251" y1="619.595" x2="768.546" y2="619.595" gradientUnits="userSpaceOnUse">
<stop stop-color="#FF9800"/>
<stop offset="0.18" stop-color="#FE9C05"/>
<stop offset="0.412" stop-color="#FDA815"/>
<stop offset="0.674" stop-color="#FBBB30"/>
<stop offset="0.954" stop-color="#F9D755"/>
<stop offset="1" stop-color="#F9DC5C"/>
</linearGradient>
<linearGradient id="paint16_linear_15_21" x1="262.611" y1="516.375" x2="358.547" y2="414.447" gradientUnits="userSpaceOnUse">
<stop stop-color="#510BAB"/>
<stop offset="0.112" stop-color="#560AAC"/>
<stop offset="0.644" stop-color="#6A09B4"/>
<stop offset="1" stop-color="#7209B7"/>
</linearGradient>
<linearGradient id="paint17_linear_15_21" x1="713.952" y1="528.928" x2="842.41" y2="425.898" gradientUnits="userSpaceOnUse">
<stop stop-color="#F686BD"/>
<stop offset="0.493" stop-color="#F888B7"/>
<stop offset="1" stop-color="#FF8FAB"/>
</linearGradient>
<linearGradient id="paint18_linear_15_21" x1="260.293" y1="657.598" x2="360.637" y2="548.004" gradientUnits="userSpaceOnUse">
<stop stop-color="#FF9800"/>
<stop offset="0.19" stop-color="#FEA00A"/>
<stop offset="0.523" stop-color="#FCB528"/>
<stop offset="0.958" stop-color="#F9D857"/>
<stop offset="1" stop-color="#F9DC5C"/>
</linearGradient>
<linearGradient id="paint19_linear_15_21" x1="713.951" y1="260.046" x2="797.378" y2="260.046" gradientUnits="userSpaceOnUse">
<stop stop-color="#FF9800"/>
<stop offset="0.19" stop-color="#FEA00A"/>
<stop offset="0.523" stop-color="#FCB528"/>
<stop offset="0.958" stop-color="#F9D857"/>
<stop offset="1" stop-color="#F9DC5C"/>
</linearGradient>
</defs>
</svg>
